{
	"asset":{
		"generator":"Khronos glTF Blender I/O v4.0.44",
		"version":"2.0"
	},
	"extensionsUsed":[
		"KHR_lights_punctual"
	],
	"extensionsRequired":[
		"KHR_lights_punctual"
	],
	"extensions":{
		"KHR_lights_punctual":{
			"lights":[
				{
					"color":[
						1,
						1,
						1
					],
					"intensity":92397.40221199984,
					"spot":{
						"innerConeAngle":0.3337942263919169,
						"outerConeAngle":0.39269909262657166
					},
					"type":"spot",
					"name":"Spot"
				},
				{
					"color":[
						1,
						1,
						1
					],
					"intensity":81527.1195988234,
					"spot":{
						"innerConeAngle":0.23358965735695847,
						"outerConeAngle":0.7440686225891113
					},
					"type":"spot",
					"name":"Spot.001"
				}
			]
		}
	},
	"scene":0,
	"scenes":[
		{
			"name":"Scene",
			"nodes":[
				0,
				1,
				2,
				3,
				4,
				5,
				6,
				7,
				8
			]
		}
	],
	"nodes":[
		{
			"mesh":0,
			"name":"Cube",
			"scale":[
				1.001663327217102,
				0.5781647562980652,
				0.056551575660705566
			],
			"translation":[
				1.0564554929733276,
				0,
				0
			]
		},
		{
			"mesh":1,
			"name":"Cube.002",
			"scale":[
				0.4031507968902588,
				0.033115919679403305,
				0.008217931725084782
			],
			"translation":[
				0.5925917625427246,
				-0.4279816150665283,
				-0.05561255291104317
			]
		},
		{
			"mesh":2,
			"name":"Cube.003",
			"scale":[
				0.2922074794769287,
				0.033115919679403305,
				0.008217931725084782
			],
			"translation":[
				0.49026310443878174,
				-0.3223031759262085,
				-0.0559455007314682
			]
		},
		{
			"camera":0,
			"name":"Camera.001",
			"translation":[
				0.9999870657920837,
				-0.0006095767021179199,
				5.343900203704834
			]
		},
		{
			"extensions":{
				"KHR_lights_punctual":{
					"light":0
				}
			},
			"name":"Spot",
			"rotation":[
				-0.23379243910312653,
				-0.2813490927219391,
				0.03321436047554016,
				0.9300971031188965
			],
			"translation":[
				-2.4550466537475586,
				1.9655117988586426,
				4.264059066772461
			]
		},
		{
			"extensions":{
				"KHR_lights_punctual":{
					"light":1
				}
			},
			"name":"Spot.001",
			"rotation":[
				-0.8262941241264343,
				-0.11162548512220383,
				-0.08375216275453568,
				0.5456770062446594
			],
			"translation":[
				0.33244454860687256,
				3.0637407302856445,
				-1.479514479637146
			]
		},
		{
			"camera":1,
			"name":"Camera.002",
			"rotation":[
				0,
				0.9995179772377014,
				0,
				0.03104528971016407
			],
			"translation":[
				1.0611902475357056,
				-0.01951029896736145,
				-3.809370756149292
			]
		},
		{
			"name":"Text",
			"rotation":[
				0.007712219376116991,
				-0.7022241950035095,
				0.7118808031082153,
				0.0068858033046126366
			],
			"scale":[
				0.05681054666638374,
				0.05681052803993225,
				0.056810542941093445
			],
			"translation":[
				0.7180714011192322,
				-0.337002694606781,
				-0.07435434311628342
			]
		},
		{
			"name":"Text.001",
			"rotation":[
				0.00262394524179399,
				-0.7022554874420166,
				0.7119177579879761,
				0.0018664024537429214
			],
			"scale":[
				0.05349133536219597,
				0.05349132791161537,
				0.05349133536219597
			],
			"translation":[
				0.9223688840866089,
				-0.4421041011810303,
				-0.07250073552131653
			]
		}
	],
	"cameras":[
		{
			"name":"Camera.001",
			"perspective":{
				"aspectRatio":1.7777777777777777,
				"yfov":0.39959648408210363,
				"zfar":1000,
				"znear":0.10000000149011612
			},
			"type":"perspective"
		},
		{
			"name":"Camera.002",
			"perspective":{
				"aspectRatio":1.7777777777777777,
				"yfov":0.39959648408210363,
				"zfar":1000,
				"znear":0.10000000149011612
			},
			"type":"perspective"
		}
	],
	"materials":[
		{
			"doubleSided":true,
			"name":"Material",
			"pbrMetallicRoughness":{
				"baseColorFactor":[
					0.05120395869016647,
					0.07089438289403915,
					0.21141543984413147,
					1
				],
				"metallicFactor":0
			}
		}
	],
	"meshes":[
		{
			"name":"Cube",
			"primitives":[
				{
					"attributes":{
						"POSITION":0,
						"NORMAL":1,
						"TEXCOORD_0":2
					},
					"indices":3,
					"material":0
				}
			]
		},
		{
			"name":"Cube.004",
			"primitives":[
				{
					"attributes":{
						"POSITION":4,
						"NORMAL":5,
						"TEXCOORD_0":6
					},
					"indices":7
				}
			]
		},
		{
			"name":"Cube.005",
			"primitives":[
				{
					"attributes":{
						"POSITION":8,
						"NORMAL":9,
						"TEXCOORD_0":10
					},
					"indices":7
				}
			]
		}
	],
	"accessors":[
		{
			"bufferView":0,
			"componentType":5126,
			"count":507,
			"max":[
				0.9978285431861877,
				1.0593829154968262,
				3.2722651958465576
			],
			"min":[
				-0.9984415173530579,
				-1.054842233657837,
				-0.9988431334495544
			],
			"type":"VEC3"
		},
		{
			"bufferView":1,
			"componentType":5126,
			"count":507,
			"type":"VEC3"
		},
		{
			"bufferView":2,
			"componentType":5126,
			"count":507,
			"type":"VEC2"
		},
		{
			"bufferView":3,
			"componentType":5123,
			"count":1680,
			"type":"SCALAR"
		},
		{
			"bufferView":4,
			"componentType":5126,
			"count":24,
			"max":[
				1,
				1,
				1
			],
			"min":[
				-1,
				-1,
				-1
			],
			"type":"VEC3"
		},
		{
			"bufferView":5,
			"componentType":5126,
			"count":24,
			"type":"VEC3"
		},
		{
			"bufferView":6,
			"componentType":5126,
			"count":24,
			"type":"VEC2"
		},
		{
			"bufferView":7,
			"componentType":5123,
			"count":36,
			"type":"SCALAR"
		},
		{
			"bufferView":8,
			"componentType":5126,
			"count":24,
			"max":[
				1,
				1,
				1
			],
			"min":[
				-1,
				-1,
				-1
			],
			"type":"VEC3"
		},
		{
			"bufferView":9,
			"componentType":5126,
			"count":24,
			"type":"VEC3"
		},
		{
			"bufferView":10,
			"componentType":5126,
			"count":24,
			"type":"VEC2"
		}
	],
	"bufferViews":[
		{
			"buffer":0,
			"byteLength":6084,
			"byteOffset":0,
			"target":34962
		},
		{
			"buffer":0,
			"byteLength":6084,
			"byteOffset":6084,
			"target":34962
		},
		{
			"buffer":0,
			"byteLength":4056,
			"byteOffset":12168,
			"target":34962
		},
		{
			"buffer":0,
			"byteLength":3360,
			"byteOffset":16224,
			"target":34963
		},
		{
			"buffer":0,
			"byteLength":288,
			"byteOffset":19584,
			"target":34962
		},
		{
			"buffer":0,
			"byteLength":288,
			"byteOffset":19872,
			"target":34962
		},
		{
			"buffer":0,
			"byteLength":192,
			"byteOffset":20160,
			"target":34962
		},
		{
			"buffer":0,
			"byteLength":72,
			"byteOffset":20352,
			"target":34963
		},
		{
			"buffer":0,
			"byteLength":288,
			"byteOffset":20424,
			"target":34962
		},
		{
			"buffer":0,
			"byteLength":288,
			"byteOffset":20712,
			"target":34962
		},
		{
			"buffer":0,
			"byteLength":192,
			"byteOffset":21000,
			"target":34962
		}
	],
	"buffers":[
		{
			"byteLength":21192,
			"uri":"cardblue.bin"
		}
	]
}
