{
  "asset": {
    "version": "2.0",
    "generator": "THREE.GLTFExporter"
  },
  "scenes": [
    {
      "name": "Scene",
      "nodes": [
        11
      ]
    }
  ],
  "scene": 0,
  "nodes": [
    {
      "matrix": [
        1.001663327217102,
        0,
        0,
        0,
        0,
        0.5781647562980652,
        0,
        0,
        0,
        0,
        0.056551575660705566,
        0,
        1.0564554929733276,
        0,
        0,
        1
      ],
      "name": "Cube",
      "extras": {
        "name": "Cube"
      },
      "mesh": 0
    },
    {
      "matrix": [
        0.4031507968902588,
        0,
        0,
        0,
        0,
        0.033115919679403305,
        0,
        0,
        0,
        0,
        0.008217931725084782,
        0,
        0.5925917625427246,
        -0.4279816150665283,
        -0.05561255291104317,
        1
      ],
      "name": "Cube002",
      "extras": {
        "name": "Cube.002"
      },
      "mesh": 1
    },
    {
      "matrix": [
        0.2922074794769287,
        0,
        0,
        0,
        0,
        0.033115919679403305,
        0,
        0,
        0,
        0,
        0.008217931725084782,
        0,
        0.49026310443878174,
        -0.3223031759262085,
        -0.0559455007314682,
        1
      ],
      "name": "Cube003",
      "extras": {
        "name": "Cube.003"
      },
      "mesh": 2
    },
    {
      "matrix": [
        1,
        0,
        0,
        0,
        0,
        1,
        0,
        0,
        0,
        0,
        1,
        0,
        0.9999870657920837,
        -0.0006095767021179199,
        5.343900203704834,
        1
      ],
      "name": "Camera001",
      "extras": {
        "name": "Camera.001"
      },
      "camera": 0
    },
    {
      "matrix": [
        1,
        0,
        0,
        0,
        0,
        1,
        0,
        0,
        0,
        0,
        1,
        0,
        0,
        0,
        -1,
        1
      ]
    },
    {
      "matrix": [
        0.8394789885654852,
        0.19333974217432104,
        0.5078334195139567,
        0,
        0.06976942033333433,
        0.8884758033528235,
        -0.4535890010521033,
        0,
        -0.5388944849092647,
        0.4162096803115727,
        0.7323675668855052,
        0,
        -2.4550466537475586,
        1.9655117988586426,
        4.264059066772461,
        1
      ],
      "name": "Spot",
      "extras": {
        "name": "Spot"
      },
      "children": [
        4
      ],
      "extensions": {
        "KHR_lights_punctual": {
          "light": 0
        }
      }
    },
    {
      "matrix": [
        1,
        0,
        0,
        0,
        0,
        1,
        0,
        0,
        0,
        0,
        1,
        0,
        0,
        0,
        -1,
        1
      ]
    },
    {
      "matrix": [
        0.9610506526103408,
        0.09306770604165848,
        0.2602307610180912,
        0,
        0.27587422379530047,
        -0.37955280866386687,
        -0.8830816562667138,
        0,
        0.01658491884972335,
        0.920477159456749,
        -0.3904444569892771,
        0,
        0.33244454860687256,
        3.0637407302856445,
        -1.479514479637146,
        1
      ],
      "name": "Spot001",
      "extras": {
        "name": "Spot.001"
      },
      "children": [
        6
      ],
      "extensions": {
        "KHR_lights_punctual": {
          "light": 1
        }
      }
    },
    {
      "matrix": [
        -0.9980723736426924,
        0,
        -0.062060650347723234,
        0,
        0,
        1,
        0,
        0,
        0.062060650347723234,
        0,
        -0.9980723736426924,
        0,
        1.0611902475357056,
        -0.01951029896736145,
        -3.809370756149292,
        1
      ],
      "name": "Camera002",
      "extras": {
        "name": "Camera.002"
      },
      "camera": 1
    },
    {
      "matrix": [
        -0.05679840033089388,
        -0.00005838259181494638,
        0.0011732012580569968,
        0,
        -0.00117229413463571,
        -0.0007764585920849771,
        -0.05679312346151386,
        0,
        0.00007439945524555342,
        -0.05680520601402541,
        0.0007750891460794843,
        0,
        0.7180714011192322,
        -0.337002694606781,
        -0.07435434311628342,
        1
      ],
      "name": "Text",
      "extras": {
        "name": "Text"
      }
    },
    {
      "matrix": [
        -0.053490229565887594,
        -0.00005498426723748944,
        0.0003400684449091989,
        0,
        -0.0003392853290742523,
        -0.0007310958510417252,
        -0.053485257161193914,
        0,
        0.000059625919480929186,
        -0.05348631247149159,
        0.0007307285788413139,
        0,
        0.9223688840866089,
        -0.4421041011810303,
        -0.07250073552131653,
        1
      ],
      "name": "Text001",
      "extras": {
        "name": "Text.001"
      }
    },
    {
      "name": "cardblue.glb",
      "children": [
        0,
        1,
        2,
        3,
        5,
        7,
        8,
        9,
        10
      ]
    }
  ],
  "bufferViews": [
    {
      "buffer": 0,
      "byteOffset": 0,
      "byteLength": 6084,
      "target": 34962,
      "byteStride": 12
    },
    {
      "buffer": 0,
      "byteOffset": 6084,
      "byteLength": 6084,
      "target": 34962,
      "byteStride": 12
    },
    {
      "buffer": 0,
      "byteOffset": 12168,
      "byteLength": 4056,
      "target": 34962,
      "byteStride": 8
    },
    {
      "buffer": 0,
      "byteOffset": 16224,
      "byteLength": 4056,
      "target": 34962,
      "byteStride": 8
    },
    {
      "buffer": 0,
      "byteOffset": 20280,
      "byteLength": 8112,
      "target": 34962,
      "byteStride": 16
    },
    {
      "buffer": 0,
      "byteOffset": 28392,
      "byteLength": 8112,
      "target": 34962,
      "byteStride": 16
    },
    {
      "buffer": 0,
      "byteOffset": 36504,
      "byteLength": 3360,
      "target": 34963
    },
    {
      "buffer": 0,
      "byteOffset": 39864,
      "byteLength": 288,
      "target": 34962,
      "byteStride": 12
    },
    {
      "buffer": 0,
      "byteOffset": 40152,
      "byteLength": 288,
      "target": 34962,
      "byteStride": 12
    },
    {
      "buffer": 0,
      "byteOffset": 40440,
      "byteLength": 192,
      "target": 34962,
      "byteStride": 8
    },
    {
      "buffer": 0,
      "byteOffset": 40632,
      "byteLength": 192,
      "target": 34962,
      "byteStride": 8
    },
    {
      "buffer": 0,
      "byteOffset": 40824,
      "byteLength": 384,
      "target": 34962,
      "byteStride": 16
    },
    {
      "buffer": 0,
      "byteOffset": 41208,
      "byteLength": 384,
      "target": 34962,
      "byteStride": 16
    },
    {
      "buffer": 0,
      "byteOffset": 41592,
      "byteLength": 72,
      "target": 34963
    },
    {
      "buffer": 0,
      "byteOffset": 41664,
      "byteLength": 288,
      "target": 34962,
      "byteStride": 12
    },
    {
      "buffer": 0,
      "byteOffset": 41952,
      "byteLength": 288,
      "target": 34962,
      "byteStride": 12
    },
    {
      "buffer": 0,
      "byteOffset": 42240,
      "byteLength": 192,
      "target": 34962,
      "byteStride": 8
    },
    {
      "buffer": 0,
      "byteOffset": 42432,
      "byteLength": 192,
      "target": 34962,
      "byteStride": 8
    },
    {
      "buffer": 0,
      "byteOffset": 42624,
      "byteLength": 384,
      "target": 34962,
      "byteStride": 16
    },
    {
      "buffer": 0,
      "byteOffset": 43008,
      "byteLength": 384,
      "target": 34962,
      "byteStride": 16
    }
  ],
  "buffers": [
    {
      "byteLength": 43392,
      "uri": "data:application/octet-stream;base64,"
    }
  ],
  "accessors": [
    {
      "bufferView": 0,
      "componentType": 5126,
      "count": 507,
      "max": [
        0.9978285431861877,
        1.0593829154968262,
        3.2722651958465576
      ],
      "min": [
        -0.9984415173530579,
        -1.054842233657837,
        -0.9988431334495544
      ],
      "type": "VEC3"
    },
    {
      "bufferView": 1,
      "componentType": 5126,
      "count": 507,
      "max": [
        1,
        0.9999772310256958,
        1
      ],
      "min": [
        -1,
        -0.9999690055847168,
        -0.9997416138648987
      ],
      "type": "VEC3"
    },
    {
      "bufferView": 2,
      "componentType": 5126,
      "count": 507,
      "max": [
        0.8750001192092896,
        1
      ],
      "min": [
        0.5,
        -1.1920928955078125e-7
      ],
      "type": "VEC2"
    },
    {
      "bufferView": 3,
      "componentType": 5126,
      "count": 507,
      "max": [
        0,
        0
      ],
      "min": [
        0,
        0
      ],
      "type": "VEC2"
    },
    {
      "bufferView": 4,
      "componentType": 5126,
      "count": 507,
      "max": [
        0,
        0,
        0,
        0
      ],
      "min": [
        0,
        0,
        0,
        0
      ],
      "type": "VEC4"
    },
    {
      "bufferView": 5,
      "componentType": 5126,
      "count": 507,
      "max": [
        1,
        1,
        1,
        1
      ],
      "min": [
        1,
        1,
        1,
        1
      ],
      "type": "VEC4"
    },
    {
      "bufferView": 6,
      "componentType": 5123,
      "count": 1680,
      "max": [
        506
      ],
      "min": [
        0
      ],
      "type": "SCALAR"
    },
    {
      "bufferView": 7,
      "componentType": 5126,
      "count": 24,
      "max": [
        1,
        1,
        1
      ],
      "min": [
        -1,
        -1,
        -1
      ],
      "type": "VEC3"
    },
    {
      "bufferView": 8,
      "componentType": 5126,
      "count": 24,
      "max": [
        1,
        1,
        1
      ],
      "min": [
        -1,
        -1,
        -1
      ],
      "type": "VEC3"
    },
    {
      "bufferView": 9,
      "componentType": 5126,
      "count": 24,
      "max": [
        0.875,
        1
      ],
      "min": [
        0.125,
        0
      ],
      "type": "VEC2"
    },
    {
      "bufferView": 10,
      "componentType": 5126,
      "count": 24,
      "max": [
        0,
        0
      ],
      "min": [
        0,
        0
      ],
      "type": "VEC2"
    },
    {
      "bufferView": 11,
      "componentType": 5126,
      "count": 24,
      "max": [
        0,
        0,
        0,
        0
      ],
      "min": [
        0,
        0,
        0,
        0
      ],
      "type": "VEC4"
    },
    {
      "bufferView": 12,
      "componentType": 5126,
      "count": 24,
      "max": [
        1,
        1,
        1,
        1
      ],
      "min": [
        1,
        1,
        1,
        1
      ],
      "type": "VEC4"
    },
    {
      "bufferView": 13,
      "componentType": 5123,
      "count": 36,
      "max": [
        23
      ],
      "min": [
        0
      ],
      "type": "SCALAR"
    },
    {
      "bufferView": 14,
      "componentType": 5126,
      "count": 24,
      "max": [
        1,
        1,
        1
      ],
      "min": [
        -1,
        -1,
        -1
      ],
      "type": "VEC3"
    },
    {
      "bufferView": 15,
      "componentType": 5126,
      "count": 24,
      "max": [
        1,
        1,
        1
      ],
      "min": [
        -1,
        -1,
        -1
      ],
      "type": "VEC3"
    },
    {
      "bufferView": 16,
      "componentType": 5126,
      "count": 24,
      "max": [
        0.875,
        1
      ],
      "min": [
        0.125,
        0
      ],
      "type": "VEC2"
    },
    {
      "bufferView": 17,
      "componentType": 5126,
      "count": 24,
      "max": [
        0,
        0
      ],
      "min": [
        0,
        0
      ],
      "type": "VEC2"
    },
    {
      "bufferView": 18,
      "componentType": 5126,
      "count": 24,
      "max": [
        0,
        0,
        0,
        0
      ],
      "min": [
        0,
        0,
        0,
        0
      ],
      "type": "VEC4"
    },
    {
      "bufferView": 19,
      "componentType": 5126,
      "count": 24,
      "max": [
        1,
        1,
        1,
        1
      ],
      "min": [
        1,
        1,
        1,
        1
      ],
      "type": "VEC4"
    }
  ],
  "materials": [
    {
      "pbrMetallicRoughness": {
        "baseColorFactor": [
          0.057805430183792694,
          0.057805430183792694,
          0.057805430183792694,
          1
        ],
        "metallicFactor": 0,
        "roughnessFactor": 1
      }
    },
    {
      "pbrMetallicRoughness": {
        "metallicFactor": 1,
        "roughnessFactor": 1
      }
    }
  ],
  "meshes": [
    {
      "primitives": [
        {
          "mode": 4,
          "attributes": {
            "POSITION": 0,
            "NORMAL": 1,
            "TEXCOORD_0": 2,
            "TEXCOORD_2": 3,
            "TANGENT": 4,
            "COLOR_0": 5
          },
          "indices": 6,
          "material": 0
        }
      ]
    },
    {
      "primitives": [
        {
          "mode": 4,
          "attributes": {
            "POSITION": 7,
            "NORMAL": 8,
            "TEXCOORD_0": 9,
            "TEXCOORD_2": 10,
            "TANGENT": 11,
            "COLOR_0": 12
          },
          "indices": 13,
          "material": 1
        }
      ]
    },
    {
      "primitives": [
        {
          "mode": 4,
          "attributes": {
            "POSITION": 14,
            "NORMAL": 15,
            "TEXCOORD_0": 16,
            "TEXCOORD_2": 17,
            "TANGENT": 18,
            "COLOR_0": 19
          },
          "indices": 13,
          "material": 1
        }
      ]
    }
  ],
  "cameras": [
    {
      "type": "perspective",
      "perspective": {
        "aspectRatio": 1.7777777777777777,
        "yfov": 0.39959648408210363,
        "zfar": 1000,
        "znear": 0.10000000149011612
      },
      "name": "PerspectiveCamera"
    },
    {
      "type": "perspective",
      "perspective": {
        "aspectRatio": 1.7777777777777777,
        "yfov": 0.39959648408210363,
        "zfar": 1000,
        "znear": 0.10000000149011612
      },
      "name": "PerspectiveCamera"
    }
  ],
  "extensions": {
    "KHR_lights_punctual": {
      "lights": [
        {
          "name": "Spot",
          "color": [
            1,
            1,
            1
          ],
          "intensity": 150,
          "type": "spot",
          "spot": {
            "innerConeAngle": 0.3337942263919169,
            "outerConeAngle": 0.39269909262657166
          }
        },
        {
          "name": "Spot001",
          "color": [
            1,
            1,
            1
          ],
          "intensity": 150,
          "type": "spot",
          "spot": {
            "innerConeAngle": 0.23358965735695847,
            "outerConeAngle": 0.7440686225891113
          }
        }
      ]
    }
  },
  "extensionsUsed": [
    "KHR_lights_punctual"
  ]
}