{
  "asset": {
    "version": "2.0",
    "generator": "THREE.GLTFExporter"
  },
  "scenes": [
    {
      "name": "Scene",
      "nodes": [
        10
      ]
    }
  ],
  "scene": 0,
  "nodes": [
    {
      "matrix": [
        -0.29086462589180684,
        -0.05518903353397775,
        -0.9551711964083935,
        0,
        -0.7711009137257037,
        0.6045246461343226,
        0.19988335568841364,
        0,
        0.566393171500188,
        0.7946723511029319,
        -0.21839116272315806,
        0,
        4.076245307922363,
        5.903861999511719,
        6.8287655618543415,
        1
      ],
      "name": "Light",
      "extras": {
        "name": "Light"
      },
      "extensions": {
        "KHR_lights_punctual": {
          "light": 0
        }
      }
    },
    {
      "matrix": [
        0.6859206347797677,
        -1.9112529336950956e-8,
        -0.7276763573390443,
        0,
        -0.32401346065627035,
        0.8953956546680355,
        -0.305420854447231,
        0,
        0.6515582539909754,
        0.4452714015268988,
        0.6141703497279187,
        0,
        7.358891487121582,
        4.958309173583984,
        6.925790786743164,
        1
      ],
      "name": "Camera",
      "extras": {
        "name": "Camera"
      },
      "camera": 0
    },
    {
      "matrix": [
        1,
        0,
        0,
        0,
        0,
        -1.3435885648505064e-7,
        1.0000001343588565,
        0,
        0,
        -1.0000001343588565,
        -1.3435885648505064e-7,
        0,
        2.4515490531921387,
        -1.187685489654541,
        -1.187685489654541,
        1
      ],
      "name": "Cube002",
      "extras": {
        "name": "Cube.002"
      },
      "mesh": 0
    },
    {
      "matrix": [
        1,
        0,
        0,
        0,
        0,
        -1.3435885648505064e-7,
        1.0000001343588565,
        0,
        0,
        -1.0000001343588565,
        -1.3435885648505064e-7,
        0,
        0.12355029582977295,
        -1.133545994758606,
        -1.187685489654541,
        1
      ],
      "name": "Cube008",
      "extras": {
        "name": "Cube.008"
      },
      "mesh": 1
    },
    {
      "matrix": [
        1,
        0,
        0,
        0,
        0,
        -1.3435885648505064e-7,
        1.0000001343588565,
        0,
        0,
        -1.0000001343588565,
        -1.3435885648505064e-7,
        0,
        -2.2856574058532715,
        -1.133545994758606,
        -1.187685489654541,
        1
      ],
      "name": "Cube001",
      "extras": {
        "name": "Cube.001"
      },
      "mesh": 2
    },
    {
      "matrix": [
        1,
        0,
        0,
        0,
        0,
        -1.3435885648505064e-7,
        1.0000001343588565,
        0,
        0,
        -1.0000001343588565,
        -1.3435885648505064e-7,
        0,
        -4.830214500427246,
        -1.1606156826019287,
        -1.187685489654541,
        1
      ],
      "name": "Cube007",
      "extras": {
        "name": "Cube.007"
      },
      "mesh": 3
    },
    {
      "matrix": [
        1,
        0,
        0,
        0,
        0,
        -1.3435885648505064e-7,
        1.0000001343588565,
        0,
        0,
        -1.0000001343588565,
        -1.3435885648505064e-7,
        0,
        -4.857283592224121,
        1.1403133869171143,
        -1.187685489654541,
        1
      ],
      "name": "Cube006",
      "extras": {
        "name": "Cube.006"
      },
      "mesh": 4
    },
    {
      "matrix": [
        1,
        0,
        0,
        0,
        0,
        -1.3435885648505064e-7,
        1.0000001343588565,
        0,
        0,
        -1.0000001343588565,
        -1.3435885648505064e-7,
        0,
        -2.339797019958496,
        1.1403133869171143,
        -1.187685489654541,
        1
      ],
      "name": "Cube005",
      "extras": {
        "name": "Cube.005"
      },
      "mesh": 5
    },
    {
      "matrix": [
        1,
        0,
        0,
        0,
        0,
        -1.3435885648505064e-7,
        1.0000001343588565,
        0,
        0,
        -1.0000001343588565,
        -1.3435885648505064e-7,
        0,
        0.12355029582977295,
        1.1673831939697266,
        -1.187685489654541,
        1
      ],
      "name": "Cube004",
      "extras": {
        "name": "Cube.004"
      },
      "mesh": 6
    },
    {
      "matrix": [
        1,
        0,
        0,
        0,
        0,
        -1.3435885648505064e-7,
        1.0000001343588565,
        0,
        0,
        -1.0000001343588565,
        -1.3435885648505064e-7,
        0,
        2.5056886672973633,
        1.1673831939697266,
        -1.187685489654541,
        1
      ],
      "name": "Cube003",
      "extras": {
        "name": "Cube.003"
      },
      "mesh": 7
    },
    {
      "name": "2blocktest.glb",
      "children": [
        0,
        1,
        2,
        3,
        4,
        5,
        6,
        7,
        8,
        9
      ]
    }
  ],
  "extensions": {
    "KHR_lights_punctual": {
      "lights": [
        {
          "name": "Light",
          "color": [
            1,
            1,
            1
          ],
          "intensity": 60,
          "type": "point"
        }
      ]
    }
  },
  "cameras": [
    {
      "type": "perspective",
      "perspective": {
        "aspectRatio": 1.7777777777777777,
        "yfov": 0.39959648408210363,
        "zfar": 100,
        "znear": 0.10000000149011612
      },
      "name": "PerspectiveCamera"
    }
  ],
  "bufferViews": [
    {
      "buffer": 0,
      "byteOffset": 0,
      "byteLength": 43296,
      "target": 34962,
      "byteStride": 12
    },
    {
      "buffer": 0,
      "byteOffset": 43296,
      "byteLength": 43296,
      "target": 34962,
      "byteStride": 12
    },
    {
      "buffer": 0,
      "byteOffset": 86592,
      "byteLength": 28864,
      "target": 34962,
      "byteStride": 8
    },
    {
      "buffer": 0,
      "byteOffset": 115456,
      "byteLength": 31752,
      "target": 34963
    },
    {
      "buffer": 0,
      "byteOffset": 147208,
      "byteLength": 43296,
      "target": 34962,
      "byteStride": 12
    },
    {
      "buffer": 0,
      "byteOffset": 190504,
      "byteLength": 43296,
      "target": 34962,
      "byteStride": 12
    },
    {
      "buffer": 0,
      "byteOffset": 233800,
      "byteLength": 28864,
      "target": 34962,
      "byteStride": 8
    },
    {
      "buffer": 0,
      "byteOffset": 262664,
      "byteLength": 43296,
      "target": 34962,
      "byteStride": 12
    },
    {
      "buffer": 0,
      "byteOffset": 305960,
      "byteLength": 43296,
      "target": 34962,
      "byteStride": 12
    },
    {
      "buffer": 0,
      "byteOffset": 349256,
      "byteLength": 28864,
      "target": 34962,
      "byteStride": 8
    },
    {
      "buffer": 0,
      "byteOffset": 378120,
      "byteLength": 43296,
      "target": 34962,
      "byteStride": 12
    },
    {
      "buffer": 0,
      "byteOffset": 421416,
      "byteLength": 43296,
      "target": 34962,
      "byteStride": 12
    },
    {
      "buffer": 0,
      "byteOffset": 464712,
      "byteLength": 28864,
      "target": 34962,
      "byteStride": 8
    },
    {
      "buffer": 0,
      "byteOffset": 493576,
      "byteLength": 43296,
      "target": 34962,
      "byteStride": 12
    },
    {
      "buffer": 0,
      "byteOffset": 536872,
      "byteLength": 43296,
      "target": 34962,
      "byteStride": 12
    },
    {
      "buffer": 0,
      "byteOffset": 580168,
      "byteLength": 28864,
      "target": 34962,
      "byteStride": 8
    },
    {
      "buffer": 0,
      "byteOffset": 609032,
      "byteLength": 43296,
      "target": 34962,
      "byteStride": 12
    },
    {
      "buffer": 0,
      "byteOffset": 652328,
      "byteLength": 43296,
      "target": 34962,
      "byteStride": 12
    },
    {
      "buffer": 0,
      "byteOffset": 695624,
      "byteLength": 28864,
      "target": 34962,
      "byteStride": 8
    },
    {
      "buffer": 0,
      "byteOffset": 724488,
      "byteLength": 43296,
      "target": 34962,
      "byteStride": 12
    },
    {
      "buffer": 0,
      "byteOffset": 767784,
      "byteLength": 43296,
      "target": 34962,
      "byteStride": 12
    },
    {
      "buffer": 0,
      "byteOffset": 811080,
      "byteLength": 28864,
      "target": 34962,
      "byteStride": 8
    },
    {
      "buffer": 0,
      "byteOffset": 839944,
      "byteLength": 43296,
      "target": 34962,
      "byteStride": 12
    },
    {
      "buffer": 0,
      "byteOffset": 883240,
      "byteLength": 43296,
      "target": 34962,
      "byteStride": 12
    },
    {
      "buffer": 0,
      "byteOffset": 926536,
      "byteLength": 28864,
      "target": 34962,
      "byteStride": 8
    }
  ],
  "buffers": [
    {
      "byteLength": 955400,
      "uri": "data:application/octet-stream;base64,"
    }
  ],
  "accessors": [
    {
      "bufferView": 0,
      "componentType": 5126,
      "count": 3608,
      "max": [
        1,
        1,
        1
      ],
      "min": [
        -1,
        -1,
        -1
      ],
      "type": "VEC3"
    },
    {
      "bufferView": 1,
      "componentType": 5126,
      "count": 3608,
      "max": [
        1,
        1,
        1
      ],
      "min": [
        -1,
        -1,
        -1
      ],
      "type": "VEC3"
    },
    {
      "bufferView": 2,
      "componentType": 5126,
      "count": 3608,
      "max": [
        0.875,
        1
      ],
      "min": [
        0.125,
        0
      ],
      "type": "VEC2"
    },
    {
      "bufferView": 3,
      "componentType": 5123,
      "count": 15876,
      "max": [
        3607
      ],
      "min": [
        0
      ],
      "type": "SCALAR"
    },
    {
      "bufferView": 4,
      "componentType": 5126,
      "count": 3608,
      "max": [
        1,
        1,
        1
      ],
      "min": [
        -1,
        -1,
        -1
      ],
      "type": "VEC3"
    },
    {
      "bufferView": 5,
      "componentType": 5126,
      "count": 3608,
      "max": [
        1,
        1,
        1
      ],
      "min": [
        -1,
        -1,
        -1
      ],
      "type": "VEC3"
    },
    {
      "bufferView": 6,
      "componentType": 5126,
      "count": 3608,
      "max": [
        0.875,
        1
      ],
      "min": [
        0.125,
        0
      ],
      "type": "VEC2"
    },
    {
      "bufferView": 7,
      "componentType": 5126,
      "count": 3608,
      "max": [
        1,
        1,
        1
      ],
      "min": [
        -1,
        -1,
        -1
      ],
      "type": "VEC3"
    },
    {
      "bufferView": 8,
      "componentType": 5126,
      "count": 3608,
      "max": [
        1,
        1,
        1
      ],
      "min": [
        -1,
        -1,
        -1
      ],
      "type": "VEC3"
    },
    {
      "bufferView": 9,
      "componentType": 5126,
      "count": 3608,
      "max": [
        0.875,
        1
      ],
      "min": [
        0.125,
        0
      ],
      "type": "VEC2"
    },
    {
      "bufferView": 10,
      "componentType": 5126,
      "count": 3608,
      "max": [
        1,
        1,
        1
      ],
      "min": [
        -1,
        -1,
        -1
      ],
      "type": "VEC3"
    },
    {
      "bufferView": 11,
      "componentType": 5126,
      "count": 3608,
      "max": [
        1,
        1,
        1
      ],
      "min": [
        -1,
        -1,
        -1
      ],
      "type": "VEC3"
    },
    {
      "bufferView": 12,
      "componentType": 5126,
      "count": 3608,
      "max": [
        0.875,
        1
      ],
      "min": [
        0.125,
        0
      ],
      "type": "VEC2"
    },
    {
      "bufferView": 13,
      "componentType": 5126,
      "count": 3608,
      "max": [
        1,
        1,
        1
      ],
      "min": [
        -1,
        -1,
        -1
      ],
      "type": "VEC3"
    },
    {
      "bufferView": 14,
      "componentType": 5126,
      "count": 3608,
      "max": [
        1,
        1,
        1
      ],
      "min": [
        -1,
        -1,
        -1
      ],
      "type": "VEC3"
    },
    {
      "bufferView": 15,
      "componentType": 5126,
      "count": 3608,
      "max": [
        0.875,
        1
      ],
      "min": [
        0.125,
        0
      ],
      "type": "VEC2"
    },
    {
      "bufferView": 16,
      "componentType": 5126,
      "count": 3608,
      "max": [
        1,
        1,
        1
      ],
      "min": [
        -1,
        -1,
        -1
      ],
      "type": "VEC3"
    },
    {
      "bufferView": 17,
      "componentType": 5126,
      "count": 3608,
      "max": [
        1,
        1,
        1
      ],
      "min": [
        -1,
        -1,
        -1
      ],
      "type": "VEC3"
    },
    {
      "bufferView": 18,
      "componentType": 5126,
      "count": 3608,
      "max": [
        0.875,
        1
      ],
      "min": [
        0.125,
        0
      ],
      "type": "VEC2"
    },
    {
      "bufferView": 19,
      "componentType": 5126,
      "count": 3608,
      "max": [
        1,
        1,
        1
      ],
      "min": [
        -1,
        -1,
        -1
      ],
      "type": "VEC3"
    },
    {
      "bufferView": 20,
      "componentType": 5126,
      "count": 3608,
      "max": [
        1,
        1,
        1
      ],
      "min": [
        -1,
        -1,
        -1
      ],
      "type": "VEC3"
    },
    {
      "bufferView": 21,
      "componentType": 5126,
      "count": 3608,
      "max": [
        0.875,
        1
      ],
      "min": [
        0.125,
        0
      ],
      "type": "VEC2"
    },
    {
      "bufferView": 22,
      "componentType": 5126,
      "count": 3608,
      "max": [
        1,
        1,
        1
      ],
      "min": [
        -1,
        -1,
        -1
      ],
      "type": "VEC3"
    },
    {
      "bufferView": 23,
      "componentType": 5126,
      "count": 3608,
      "max": [
        1,
        1,
        1
      ],
      "min": [
        -1,
        -1,
        -1
      ],
      "type": "VEC3"
    },
    {
      "bufferView": 24,
      "componentType": 5126,
      "count": 3608,
      "max": [
        0.875,
        1
      ],
      "min": [
        0.125,
        0
      ],
      "type": "VEC2"
    }
  ],
  "materials": [
    {
      "pbrMetallicRoughness": {
        "baseColorFactor": [
          0.2274184226989746,
          0.2274184226989746,
          0.2274184226989746,
          1
        ],
        "metallicFactor": 0,
        "roughnessFactor": 0.5
      },
      "doubleSided": true,
      "name": "Material.002"
    },
    {
      "pbrMetallicRoughness": {
        "baseColorFactor": [
          0.5500878095626831,
          0.8006061315536499,
          0.4443577527999878,
          1
        ],
        "metallicFactor": 0,
        "roughnessFactor": 0.5
      },
      "doubleSided": true,
      "name": "Material.001"
    },
    {
      "pbrMetallicRoughness": {
        "baseColorFactor": [
          0.1071179136633873,
          0.3881155848503113,
          0.07613599300384521,
          1
        ],
        "metallicFactor": 0,
        "roughnessFactor": 0.5
      },
      "doubleSided": true,
      "name": "Material.003"
    }
  ],
  "meshes": [
    {
      "primitives": [
        {
          "mode": 4,
          "attributes": {
            "POSITION": 0,
            "NORMAL": 1,
            "TEXCOORD_0": 2
          },
          "indices": 3,
          "material": 0
        }
      ]
    },
    {
      "primitives": [
        {
          "mode": 4,
          "attributes": {
            "POSITION": 4,
            "NORMAL": 5,
            "TEXCOORD_0": 6
          },
          "indices": 3,
          "material": 1
        }
      ]
    },
    {
      "primitives": [
        {
          "mode": 4,
          "attributes": {
            "POSITION": 7,
            "NORMAL": 8,
            "TEXCOORD_0": 9
          },
          "indices": 3,
          "material": 0
        }
      ]
    },
    {
      "primitives": [
        {
          "mode": 4,
          "attributes": {
            "POSITION": 10,
            "NORMAL": 11,
            "TEXCOORD_0": 12
          },
          "indices": 3,
          "material": 0
        }
      ]
    },
    {
      "primitives": [
        {
          "mode": 4,
          "attributes": {
            "POSITION": 13,
            "NORMAL": 14,
            "TEXCOORD_0": 15
          },
          "indices": 3,
          "material": 0
        }
      ]
    },
    {
      "primitives": [
        {
          "mode": 4,
          "attributes": {
            "POSITION": 16,
            "NORMAL": 17,
            "TEXCOORD_0": 18
          },
          "indices": 3,
          "material": 2
        }
      ]
    },
    {
      "primitives": [
        {
          "mode": 4,
          "attributes": {
            "POSITION": 19,
            "NORMAL": 20,
            "TEXCOORD_0": 21
          },
          "indices": 3,
          "material": 0
        }
      ]
    },
    {
      "primitives": [
        {
          "mode": 4,
          "attributes": {
            "POSITION": 22,
            "NORMAL": 23,
            "TEXCOORD_0": 24
          },
          "indices": 3,
          "material": 0
        }
      ]
    }
  ],
  "extensionsUsed": [
    "KHR_lights_punctual"
  ]
}