{
  "asset": {
    "version": "2.0",
    "generator": "THREE.GLTFExporter"
  },
  "scenes": [
    {
      "name": "Scene",
      "nodes": [
        15
      ]
    }
  ],
  "scene": 0,
  "nodes": [
    {
      "rotation": [
        -0.23393094539642334,
        0.691729724407196,
        0.4085858464241028,
        0.5475801825523376
      ],
      "translation": [
        4.076245307922363,
        1.1453156471252441,
        0.2695115804672241
      ],
      "name": "Light",
      "extras": {
        "name": "Light"
      },
      "extensions": {
        "KHR_lights_punctual": {
          "light": 0
        }
      }
    },
    {
      "rotation": [
        -0.12537650763988495,
        0.3756013512611389,
        0.1263459175825119,
        0.9095279574394226
      ],
      "translation": [
        7.358891487121582,
        4.089473247528076,
        7.905051231384277
      ],
      "name": "Camera",
      "extras": {
        "name": "Camera"
      },
      "camera": 0
    },
    {
      "rotation": [
        0.20072150230407715,
        0.0734144076704979,
        0.006078188307583332,
        0.9768747687339783
      ],
      "translation": [
        0.20881749402700228,
        0.5286590122796597,
        4.748894356598701
      ],
      "name": "Plane",
      "extras": {
        "name": "Plane"
      },
      "mesh": 0
    },
    {
      "rotation": [
        -0.23393094539642334,
        0.691729724407196,
        0.4085858464241028,
        0.5475801825523376
      ],
      "translation": [
        0.36226844787597656,
        2.757221221923828,
        2.2870397567749023
      ],
      "name": "Light001",
      "extras": {
        "name": "Light.001"
      },
      "extensions": {
        "KHR_lights_punctual": {
          "light": 1
        }
      }
    },
    {
      "rotation": [
        -0.23393094539642334,
        0.691729724407196,
        0.4085858464241028,
        0.5475801825523376
      ],
      "translation": [
        -2.07532000541687,
        1.8569228649139404,
        2.5914130210876465
      ],
      "name": "Light002",
      "extras": {
        "name": "Light.002"
      },
      "extensions": {
        "KHR_lights_punctual": {
          "light": 2
        }
      }
    },
    {
      "rotation": [
        -0.23393094539642334,
        0.691729724407196,
        0.4085858464241028,
        0.5475801825523376
      ],
      "translation": [
        -0.2834196090698242,
        2.1286187171936035,
        -3.250389814376831
      ],
      "name": "Light003",
      "extras": {
        "name": "Light.003"
      },
      "extensions": {
        "KHR_lights_punctual": {
          "light": 3
        }
      }
    },
    {
      "rotation": [
        -0.23393094539642334,
        0.691729724407196,
        0.4085858464241028,
        0.5475801825523376
      ],
      "translation": [
        -1.9480886459350586,
        -1.2572290897369385,
        0.160028874874115
      ],
      "name": "Light004",
      "extras": {
        "name": "Light.004"
      },
      "extensions": {
        "KHR_lights_punctual": {
          "light": 4
        }
      }
    },
    {
      "rotation": [
        -0.23393094539642334,
        0.691729724407196,
        0.4085858464241028,
        0.5475801825523376
      ],
      "translation": [
        2.388090133666992,
        -1.0705482959747314,
        1.9684816598892212
      ],
      "name": "Light005",
      "extras": {
        "name": "Light.005"
      },
      "extensions": {
        "KHR_lights_punctual": {
          "light": 5
        }
      }
    },
    {
      "rotation": [
        -0.23393094539642334,
        0.691729724407196,
        0.4085858464241028,
        0.5475801825523376
      ],
      "translation": [
        1.274186134338379,
        -2.3454270362854004,
        -1.514247179031372
      ],
      "name": "Light006",
      "extras": {
        "name": "Light.006"
      },
      "extensions": {
        "KHR_lights_punctual": {
          "light": 6
        }
      }
    },
    {
      "rotation": [
        -0.23393094539642334,
        0.691729724407196,
        0.4085858464241028,
        0.5475801825523376
      ],
      "translation": [
        -0.5349700450897217,
        3.3169476985931396,
        6.670567035675049
      ],
      "name": "Light007",
      "extras": {
        "name": "Light.007"
      },
      "extensions": {
        "KHR_lights_punctual": {
          "light": 7
        }
      }
    },
    {
      "rotation": [
        -0.23393094539642334,
        0.691729724407196,
        0.4085858464241028,
        0.5475801825523376
      ],
      "translation": [
        1.4776341915130615,
        -0.9410208463668823,
        8.876340866088867
      ],
      "name": "Light008",
      "extras": {
        "name": "Light.008"
      },
      "extensions": {
        "KHR_lights_punctual": {
          "light": 8
        }
      }
    },
    {
      "rotation": [
        -0.23393094539642334,
        0.691729724407196,
        0.4085858464241028,
        0.5475801825523376
      ],
      "translation": [
        -0.41378140449523926,
        3.01481294631958,
        -7.128974914550781
      ],
      "name": "Light009",
      "extras": {
        "name": "Light.009"
      },
      "extensions": {
        "KHR_lights_punctual": {
          "light": 9
        }
      }
    },
    {
      "rotation": [
        -0.23393094539642334,
        0.691729724407196,
        0.4085858464241028,
        0.5475801825523376
      ],
      "translation": [
        1.2325602769851685,
        -1.4539463520050049,
        -6.1665754318237305
      ],
      "name": "Light010",
      "extras": {
        "name": "Light.010"
      },
      "extensions": {
        "KHR_lights_punctual": {
          "light": 10
        }
      }
    },
    {
      "rotation": [
        -0.23393094539642334,
        0.691729724407196,
        0.4085858464241028,
        0.5475801825523376
      ],
      "translation": [
        -0.6727434992790222,
        4.22325325012207,
        -11.737054824829102
      ],
      "name": "Light011",
      "extras": {
        "name": "Light.011"
      },
      "extensions": {
        "KHR_lights_punctual": {
          "light": 11
        }
      }
    },
    {
      "rotation": [
        -0.23393094539642334,
        0.691729724407196,
        0.4085858464241028,
        0.5475801825523376
      ],
      "translation": [
        1.3222134113311768,
        -0.39531171321868896,
        -12.85749626159668
      ],
      "name": "Light012",
      "extras": {
        "name": "Light.012"
      },
      "extensions": {
        "KHR_lights_punctual": {
          "light": 12
        }
      }
    },
    {
      "name": "plane.glb",
      "children": [
        0,
        1,
        2,
        3,
        4,
        5,
        6,
        7,
        8,
        9,
        10,
        11,
        12,
        13,
        14
      ]
    }
  ],
  "extensions": {
    "KHR_lights_punctual": {
      "lights": [
        {
          "name": "Light",
          "color": [
            1,
            1,
            1
          ],
          "intensity": 70,
          "type": "point"
        },
        {
          "name": "Light001",
          "color": [
            1,
            1,
            1
          ],
          "intensity": 70,
          "type": "point"
        },
        {
          "name": "Light002",
          "color": [
            1,
            1,
            1
          ],
          "intensity": 50,
          "type": "point"
        },
        {
          "name": "Light003",
          "color": [
            1,
            1,
            1
          ],
          "intensity": 50,
          "type": "point"
        },
        {
          "name": "Light004",
          "color": [
            1,
            1,
            1
          ],
          "intensity": 50,
          "type": "point"
        },
        {
          "name": "Light005",
          "color": [
            1,
            1,
            1
          ],
          "intensity": 50,
          "type": "point"
        },
        {
          "name": "Light006",
          "color": [
            1,
            1,
            1
          ],
          "intensity": 50,
          "type": "point"
        },
        {
          "name": "Light007",
          "color": [
            1,
            1,
            1
          ],
          "intensity": 50,
          "type": "point"
        },
        {
          "name": "Light008",
          "color": [
            1,
            1,
            1
          ],
          "intensity": 50,
          "type": "point"
        },
        {
          "name": "Light009",
          "color": [
            1,
            1,
            1
          ],
          "intensity": 50,
          "type": "point"
        },
        {
          "name": "Light010",
          "color": [
            1,
            1,
            1
          ],
          "intensity": 50,
          "type": "point"
        },
        {
          "name": "Light011",
          "color": [
            1,
            1,
            1
          ],
          "intensity": 50,
          "type": "point"
        },
        {
          "name": "Light012",
          "color": [
            1,
            1,
            1
          ],
          "intensity": 50,
          "type": "point"
        }
      ]
    }
  },
  "cameras": [
    {
      "type": "perspective",
      "perspective": {
        "aspectRatio": 1.7777777777777777,
        "yfov": 0.39959648408210363,
        "zfar": 100,
        "znear": 0.10000000149011612
      },
      "name": "PerspectiveCamera"
    }
  ],
  "bufferViews": [
    {
      "buffer": 0,
      "byteOffset": 0,
      "byteLength": 360,
      "target": 34962,
      "byteStride": 12
    },
    {
      "buffer": 0,
      "byteOffset": 360,
      "byteLength": 360,
      "target": 34962,
      "byteStride": 12
    },
    {
      "buffer": 0,
      "byteOffset": 720,
      "byteLength": 240,
      "target": 34962,
      "byteStride": 8
    },
    {
      "buffer": 0,
      "byteOffset": 960,
      "byteLength": 240,
      "target": 34962,
      "byteStride": 8
    },
    {
      "buffer": 0,
      "byteOffset": 1200,
      "byteLength": 480,
      "target": 34962,
      "byteStride": 16
    },
    {
      "buffer": 0,
      "byteOffset": 1680,
      "byteLength": 480,
      "target": 34962,
      "byteStride": 16
    },
    {
      "buffer": 0,
      "byteOffset": 2160,
      "byteLength": 336,
      "target": 34963
    },
    {
      "buffer": 0,
      "byteOffset": 2496,
      "byteLength": 272
    },
    {
      "buffer": 0,
      "byteOffset": 2768,
      "byteLength": 816
    },
    {
      "buffer": 0,
      "byteOffset": 3584,
      "byteLength": 8
    },
    {
      "buffer": 0,
      "byteOffset": 3592,
      "byteLength": 32
    },
    {
      "buffer": 0,
      "byteOffset": 3624,
      "byteLength": 4
    },
    {
      "buffer": 0,
      "byteOffset": 3628,
      "byteLength": 12
    },
    {
      "buffer": 0,
      "byteOffset": 3640,
      "byteLength": 4
    },
    {
      "buffer": 0,
      "byteOffset": 3644,
      "byteLength": 12
    }
  ],
  "buffers": [
    {
      "byteLength": 3656,
      "uri": "data:application/octet-stream;base64,"
    }
  ],
  "accessors": [
    {
      "bufferView": 0,
      "componentType": 5126,
      "count": 30,
      "max": [
        1,
        0,
        1.1456395387649536
      ],
      "min": [
        -1,
        -0.9253711700439453,
        -1.9974632263183594
      ],
      "type": "VEC3"
    },
    {
      "bufferView": 1,
      "componentType": 5126,
      "count": 30,
      "max": [
        0.9208461046218872,
        0.9995852112770081,
        0.981198787689209
      ],
      "min": [
        -0.9208461046218872,
        -0.9972357153892517,
        -0.9998000264167786
      ],
      "type": "VEC3"
    },
    {
      "bufferView": 2,
      "componentType": 5126,
      "count": 30,
      "max": [
        1,
        1
      ],
      "min": [
        0,
        0
      ],
      "type": "VEC2"
    },
    {
      "bufferView": 3,
      "componentType": 5126,
      "count": 30,
      "max": [
        0,
        0
      ],
      "min": [
        0,
        0
      ],
      "type": "VEC2"
    },
    {
      "bufferView": 4,
      "componentType": 5126,
      "count": 30,
      "max": [
        0,
        0,
        0,
        0
      ],
      "min": [
        0,
        0,
        0,
        0
      ],
      "type": "VEC4"
    },
    {
      "bufferView": 5,
      "componentType": 5126,
      "count": 30,
      "max": [
        1,
        1,
        1,
        1
      ],
      "min": [
        1,
        1,
        1,
        1
      ],
      "type": "VEC4"
    },
    {
      "bufferView": 6,
      "componentType": 5123,
      "count": 168,
      "max": [
        29
      ],
      "min": [
        0
      ],
      "type": "SCALAR"
    },
    {
      "bufferView": 7,
      "componentType": 5126,
      "count": 68,
      "max": [
        2.7916667461395264
      ],
      "min": [
        0
      ],
      "type": "SCALAR"
    },
    {
      "bufferView": 8,
      "componentType": 5126,
      "count": 68,
      "max": [
        0.7643405199050903,
        3.4720358848571777,
        5.119128227233887
      ],
      "min": [
        5.699550367942708e-17,
        0.5091205835342407,
        -15.348047256469727
      ],
      "type": "VEC3"
    },
    {
      "bufferView": 9,
      "componentType": 5126,
      "count": 2,
      "max": [
        2.7916667461395264
      ],
      "min": [
        0
      ],
      "type": "SCALAR"
    },
    {
      "bufferView": 10,
      "componentType": 5126,
      "count": 2,
      "max": [
        0.20072150230407715,
        0.0734144076704979,
        0.006078188307583332,
        0.9768747687339783
      ],
      "min": [
        0.20072150230407715,
        0.0734144076704979,
        0.006078188307583332,
        0.9768747687339783
      ],
      "type": "VEC4"
    },
    {
      "bufferView": 11,
      "componentType": 5126,
      "count": 1,
      "max": [
        0
      ],
      "min": [
        0
      ],
      "type": "SCALAR"
    },
    {
      "bufferView": 12,
      "componentType": 5126,
      "count": 1,
      "max": [
        -0.5349700450897217,
        3.3169476985931396,
        6.670567035675049
      ],
      "min": [
        -0.5349700450897217,
        3.3169476985931396,
        6.670567035675049
      ],
      "type": "VEC3"
    },
    {
      "bufferView": 13,
      "componentType": 5126,
      "count": 1,
      "max": [
        0
      ],
      "min": [
        0
      ],
      "type": "SCALAR"
    },
    {
      "bufferView": 14,
      "componentType": 5126,
      "count": 1,
      "max": [
        1.4776341915130615,
        -0.9410208463668823,
        8.876340866088867
      ],
      "min": [
        1.4776341915130615,
        -0.9410208463668823,
        8.876340866088867
      ],
      "type": "VEC3"
    }
  ],
  "materials": [
    {
      "pbrMetallicRoughness": {
        "baseColorFactor": [
          0.03703157976269722,
          0.06805648654699326,
          0.5527133941650391,
          1
        ],
        "metallicFactor": 0,
        "roughnessFactor": 1
      },
      "doubleSided": true,
      "name": "Material.001"
    }
  ],
  "meshes": [
    {
      "primitives": [
        {
          "mode": 4,
          "attributes": {
            "POSITION": 0,
            "NORMAL": 1,
            "TEXCOORD_0": 2,
            "TEXCOORD_2": 3,
            "TANGENT": 4,
            "COLOR_0": 5
          },
          "indices": 6,
          "material": 0
        }
      ]
    }
  ],
  "animations": [
    {
      "name": "PlaneAction",
      "samplers": [
        {
          "input": 7,
          "output": 8,
          "interpolation": "LINEAR"
        },
        {
          "input": 9,
          "output": 10,
          "interpolation": "STEP"
        }
      ],
      "channels": [
        {
          "sampler": 0,
          "target": {
            "node": 2,
            "path": "translation"
          }
        },
        {
          "sampler": 1,
          "target": {
            "node": 2,
            "path": "rotation"
          }
        }
      ]
    },
    {
      "name": "Light.007Action",
      "samplers": [
        {
          "input": 11,
          "output": 12,
          "interpolation": "LINEAR"
        }
      ],
      "channels": [
        {
          "sampler": 0,
          "target": {
            "node": 9,
            "path": "translation"
          }
        }
      ]
    },
    {
      "name": "Light.008Action",
      "samplers": [
        {
          "input": 13,
          "output": 14,
          "interpolation": "LINEAR"
        }
      ],
      "channels": [
        {
          "sampler": 0,
          "target": {
            "node": 10,
            "path": "translation"
          }
        }
      ]
    }
  ],
  "extensionsUsed": [
    "KHR_lights_punctual"
  ]
}